<?xml version="1.0" encoding="UTF-8" standalone="no"?>
<!DOCTYPE svg PUBLIC "-//W3C//DTD SVG 1.1//EN"
 "http://www.w3.org/Graphics/SVG/1.1/DTD/svg11.dtd">
<!-- Generated by graphviz version 10.0.1 (20240210.2158)
 -->
<!-- Pages: 1 -->
<svg width="271pt" height="290pt"
 viewBox="0.00 0.00 271.00 290.00" xmlns="http://www.w3.org/2000/svg" xmlns:xlink="http://www.w3.org/1999/xlink">
<g id="graph0" class="graph" transform="scale(1 1) rotate(0) translate(4 286)">
<polygon fill="white" stroke="none" points="-4,4 -4,-286 267,-286 267,4 -4,4"/>
<!-- tab -->
<g id="node1" class="node">
<title>tab</title>
<polygon fill="black" stroke="none" points="11,-250 11,-275 36,-275 36,-250 11,-250"/>
<polygon fill="none" stroke="black" points="11,-250 11,-275 36,-275 36,-250 11,-250"/>
<text text-anchor="start" x="20.12" y="-257.07" font-family="Times New Roman,serif" font-size="14.00">*</text>
<polygon fill="black" stroke="none" points="38,-250 38,-275 63,-275 63,-250 38,-250"/>
<polygon fill="none" stroke="black" points="38,-250 38,-275 63,-275 63,-250 38,-250"/>
<text text-anchor="start" x="47.12" y="-257.07" font-family="Times New Roman,serif" font-size="14.00">*</text>
<polygon fill="black" stroke="none" points="65,-250 65,-275 90,-275 90,-250 65,-250"/>
<polygon fill="none" stroke="black" points="65,-250 65,-275 90,-275 90,-250 65,-250"/>
<text text-anchor="start" x="74.12" y="-257.07" font-family="Times New Roman,serif" font-size="14.00">*</text>
<polygon fill="black" stroke="none" points="92,-250 92,-275 117,-275 117,-250 92,-250"/>
<polygon fill="none" stroke="black" points="92,-250 92,-275 117,-275 117,-250 92,-250"/>
<text text-anchor="start" x="101.12" y="-257.07" font-family="Times New Roman,serif" font-size="14.00">*</text>
<polygon fill="black" stroke="none" points="119,-250 119,-275 144,-275 144,-250 119,-250"/>
<polygon fill="none" stroke="black" points="119,-250 119,-275 144,-275 144,-250 119,-250"/>
<text text-anchor="start" x="128.12" y="-257.07" font-family="Times New Roman,serif" font-size="14.00">*</text>
<polygon fill="black" stroke="none" points="146,-250 146,-275 171,-275 171,-250 146,-250"/>
<polygon fill="none" stroke="black" points="146,-250 146,-275 171,-275 171,-250 146,-250"/>
<text text-anchor="start" x="155.12" y="-257.07" font-family="Times New Roman,serif" font-size="14.00">*</text>
<polygon fill="black" stroke="none" points="173,-250 173,-275 198,-275 198,-250 173,-250"/>
<polygon fill="none" stroke="black" points="173,-250 173,-275 198,-275 198,-250 173,-250"/>
<text text-anchor="start" x="182.12" y="-257.07" font-family="Times New Roman,serif" font-size="14.00">*</text>
<polygon fill="black" stroke="none" points="200,-250 200,-275 225,-275 225,-250 200,-250"/>
<polygon fill="none" stroke="black" points="200,-250 200,-275 225,-275 225,-250 200,-250"/>
<text text-anchor="start" x="209.12" y="-257.07" font-family="Times New Roman,serif" font-size="14.00">*</text>
<polygon fill="black" stroke="none" points="227,-250 227,-275 252,-275 252,-250 227,-250"/>
<polygon fill="none" stroke="black" points="227,-250 227,-275 252,-275 252,-250 227,-250"/>
<text text-anchor="start" x="236.12" y="-257.07" font-family="Times New Roman,serif" font-size="14.00">*</text>
<polygon fill="black" stroke="none" points="11,-223 11,-248 36,-248 36,-223 11,-223"/>
<polygon fill="none" stroke="black" points="11,-223 11,-248 36,-248 36,-223 11,-223"/>
<text text-anchor="start" x="20.12" y="-230.07" font-family="Times New Roman,serif" font-size="14.00">*</text>
<polygon fill="lime" stroke="none" points="38,-223 38,-248 63,-248 63,-223 38,-223"/>
<polygon fill="none" stroke="black" points="38,-223 38,-248 63,-248 63,-223 38,-223"/>
<text text-anchor="start" x="46.38" y="-230.07" font-family="Times New Roman,serif" font-size="14.00" fill="lime">+</text>
<polygon fill="black" stroke="none" points="65,-223 65,-248 90,-248 90,-223 65,-223"/>
<polygon fill="none" stroke="black" points="65,-223 65,-248 90,-248 90,-223 65,-223"/>
<text text-anchor="start" x="74.12" y="-230.07" font-family="Times New Roman,serif" font-size="14.00">*</text>
<polygon fill="white" stroke="none" points="92,-223 92,-248 117,-248 117,-223 92,-223"/>
<polygon fill="none" stroke="black" points="92,-223 92,-248 117,-248 117,-223 92,-223"/>
<text text-anchor="start" x="102.25" y="-230.07" font-family="Times New Roman,serif" font-size="14.00" fill="white">&#45;</text>
<polygon fill="black" stroke="none" points="119,-223 119,-248 144,-248 144,-223 119,-223"/>
<polygon fill="none" stroke="black" points="119,-223 119,-248 144,-248 144,-223 119,-223"/>
<text text-anchor="start" x="128.12" y="-230.07" font-family="Times New Roman,serif" font-size="14.00">*</text>
<polygon fill="white" stroke="none" points="146,-223 146,-248 171,-248 171,-223 146,-223"/>
<polygon fill="none" stroke="black" points="146,-223 146,-248 171,-248 171,-223 146,-223"/>
<text text-anchor="start" x="156.25" y="-230.07" font-family="Times New Roman,serif" font-size="14.00" fill="white">&#45;</text>
<polygon fill="tomato" stroke="none" points="173,-223 173,-248 198,-248 198,-223 173,-223"/>
<polygon fill="none" stroke="black" points="173,-223 173,-248 198,-248 198,-223 173,-223"/>
<text text-anchor="start" x="180.62" y="-230.07" font-family="Times New Roman,serif" font-size="14.00">C</text>
<polygon fill="white" stroke="none" points="200,-223 200,-248 225,-248 225,-223 200,-223"/>
<polygon fill="none" stroke="black" points="200,-223 200,-248 225,-248 225,-223 200,-223"/>
<text text-anchor="start" x="210.25" y="-230.07" font-family="Times New Roman,serif" font-size="14.00" fill="white">&#45;</text>
<polygon fill="black" stroke="none" points="227,-223 227,-248 252,-248 252,-223 227,-223"/>
<polygon fill="none" stroke="black" points="227,-223 227,-248 252,-248 252,-223 227,-223"/>
<text text-anchor="start" x="236.12" y="-230.07" font-family="Times New Roman,serif" font-size="14.00">*</text>
<polygon fill="black" stroke="none" points="11,-196 11,-221 36,-221 36,-196 11,-196"/>
<polygon fill="none" stroke="black" points="11,-196 11,-221 36,-221 36,-196 11,-196"/>
<text text-anchor="start" x="20.12" y="-203.07" font-family="Times New Roman,serif" font-size="14.00">*</text>
<polygon fill="white" stroke="none" points="38,-196 38,-221 63,-221 63,-196 38,-196"/>
<polygon fill="none" stroke="black" points="38,-196 38,-221 63,-221 63,-196 38,-196"/>
<text text-anchor="start" x="48.25" y="-203.07" font-family="Times New Roman,serif" font-size="14.00" fill="white">&#45;</text>
<polygon fill="black" stroke="none" points="65,-196 65,-221 90,-221 90,-196 65,-196"/>
<polygon fill="none" stroke="black" points="65,-196 65,-221 90,-221 90,-196 65,-196"/>
<text text-anchor="start" x="74.12" y="-203.07" font-family="Times New Roman,serif" font-size="14.00">*</text>
<polygon fill="white" stroke="none" points="92,-196 92,-221 117,-221 117,-196 92,-196"/>
<polygon fill="none" stroke="black" points="92,-196 92,-221 117,-221 117,-196 92,-196"/>
<text text-anchor="start" x="102.25" y="-203.07" font-family="Times New Roman,serif" font-size="14.00" fill="white">&#45;</text>
<polygon fill="black" stroke="none" points="119,-196 119,-221 144,-221 144,-196 119,-196"/>
<polygon fill="none" stroke="black" points="119,-196 119,-221 144,-221 144,-196 119,-196"/>
<text text-anchor="start" x="128.12" y="-203.07" font-family="Times New Roman,serif" font-size="14.00">*</text>
<polygon fill="white" stroke="none" points="146,-196 146,-221 171,-221 171,-196 146,-196"/>
<polygon fill="none" stroke="black" points="146,-196 146,-221 171,-221 171,-196 146,-196"/>
<text text-anchor="start" x="156.25" y="-203.07" font-family="Times New Roman,serif" font-size="14.00" fill="white">&#45;</text>
<polygon fill="black" stroke="none" points="173,-196 173,-221 198,-221 198,-196 173,-196"/>
<polygon fill="none" stroke="black" points="173,-196 173,-221 198,-221 198,-196 173,-196"/>
<text text-anchor="start" x="182.12" y="-203.07" font-family="Times New Roman,serif" font-size="14.00">*</text>
<polygon fill="white" stroke="none" points="200,-196 200,-221 225,-221 225,-196 200,-196"/>
<polygon fill="none" stroke="black" points="200,-196 200,-221 225,-221 225,-196 200,-196"/>
<text text-anchor="start" x="210.25" y="-203.07" font-family="Times New Roman,serif" font-size="14.00" fill="white">&#45;</text>
<polygon fill="black" stroke="none" points="227,-196 227,-221 252,-221 252,-196 227,-196"/>
<polygon fill="none" stroke="black" points="227,-196 227,-221 252,-221 252,-196 227,-196"/>
<text text-anchor="start" x="236.12" y="-203.07" font-family="Times New Roman,serif" font-size="14.00">*</text>
<polygon fill="black" stroke="none" points="11,-169 11,-194 36,-194 36,-169 11,-169"/>
<polygon fill="none" stroke="black" points="11,-169 11,-194 36,-194 36,-169 11,-169"/>
<text text-anchor="start" x="20.12" y="-176.07" font-family="Times New Roman,serif" font-size="14.00">*</text>
<polygon fill="white" stroke="none" points="38,-169 38,-194 63,-194 63,-169 38,-169"/>
<polygon fill="none" stroke="black" points="38,-169 38,-194 63,-194 63,-169 38,-169"/>
<text text-anchor="start" x="48.25" y="-176.07" font-family="Times New Roman,serif" font-size="14.00" fill="white">&#45;</text>
<polygon fill="white" stroke="none" points="65,-169 65,-194 90,-194 90,-169 65,-169"/>
<polygon fill="none" stroke="black" points="65,-169 65,-194 90,-194 90,-169 65,-169"/>
<text text-anchor="start" x="75.25" y="-176.07" font-family="Times New Roman,serif" font-size="14.00" fill="white">&#45;</text>
<polygon fill="tomato" stroke="none" points="92,-169 92,-194 117,-194 117,-169 92,-169"/>
<polygon fill="none" stroke="black" points="92,-169 92,-194 117,-194 117,-169 92,-169"/>
<text text-anchor="start" x="99.62" y="-176.07" font-family="Times New Roman,serif" font-size="14.00">A</text>
<polygon fill="black" stroke="none" points="119,-169 119,-194 144,-194 144,-169 119,-169"/>
<polygon fill="none" stroke="black" points="119,-169 119,-194 144,-194 144,-169 119,-169"/>
<text text-anchor="start" x="128.12" y="-176.07" font-family="Times New Roman,serif" font-size="14.00">*</text>
<polygon fill="white" stroke="none" points="146,-169 146,-194 171,-194 171,-169 146,-169"/>
<polygon fill="none" stroke="black" points="146,-169 146,-194 171,-194 171,-169 146,-169"/>
<text text-anchor="start" x="156.25" y="-176.07" font-family="Times New Roman,serif" font-size="14.00" fill="white">&#45;</text>
<polygon fill="black" stroke="none" points="173,-169 173,-194 198,-194 198,-169 173,-169"/>
<polygon fill="none" stroke="black" points="173,-169 173,-194 198,-194 198,-169 173,-169"/>
<text text-anchor="start" x="182.12" y="-176.07" font-family="Times New Roman,serif" font-size="14.00">*</text>
<polygon fill="white" stroke="none" points="200,-169 200,-194 225,-194 225,-169 200,-169"/>
<polygon fill="none" stroke="black" points="200,-169 200,-194 225,-194 225,-169 200,-169"/>
<text text-anchor="start" x="210.25" y="-176.07" font-family="Times New Roman,serif" font-size="14.00" fill="white">&#45;</text>
<polygon fill="black" stroke="none" points="227,-169 227,-194 252,-194 252,-169 227,-169"/>
<polygon fill="none" stroke="black" points="227,-169 227,-194 252,-194 252,-169 227,-169"/>
<text text-anchor="start" x="236.12" y="-176.07" font-family="Times New Roman,serif" font-size="14.00">*</text>
<polygon fill="black" stroke="none" points="11,-142 11,-167 36,-167 36,-142 11,-142"/>
<polygon fill="none" stroke="black" points="11,-142 11,-167 36,-167 36,-142 11,-142"/>
<text text-anchor="start" x="20.12" y="-149.07" font-family="Times New Roman,serif" font-size="14.00">*</text>
<polygon fill="white" stroke="none" points="38,-142 38,-167 63,-167 63,-142 38,-142"/>
<polygon fill="none" stroke="black" points="38,-142 38,-167 63,-167 63,-142 38,-142"/>
<text text-anchor="start" x="48.25" y="-149.07" font-family="Times New Roman,serif" font-size="14.00" fill="white">&#45;</text>
<polygon fill="black" stroke="none" points="65,-142 65,-167 90,-167 90,-142 65,-142"/>
<polygon fill="none" stroke="black" points="65,-142 65,-167 90,-167 90,-142 65,-142"/>
<text text-anchor="start" x="74.12" y="-149.07" font-family="Times New Roman,serif" font-size="14.00">*</text>
<polygon fill="white" stroke="none" points="92,-142 92,-167 117,-167 117,-142 92,-142"/>
<polygon fill="none" stroke="black" points="92,-142 92,-167 117,-167 117,-142 92,-142"/>
<text text-anchor="start" x="102.25" y="-149.07" font-family="Times New Roman,serif" font-size="14.00" fill="white">&#45;</text>
<polygon fill="black" stroke="none" points="119,-142 119,-167 144,-167 144,-142 119,-142"/>
<polygon fill="none" stroke="black" points="119,-142 119,-167 144,-167 144,-142 119,-142"/>
<text text-anchor="start" x="128.12" y="-149.07" font-family="Times New Roman,serif" font-size="14.00">*</text>
<polygon fill="white" stroke="none" points="146,-142 146,-167 171,-167 171,-142 146,-142"/>
<polygon fill="none" stroke="black" points="146,-142 146,-167 171,-167 171,-142 146,-142"/>
<text text-anchor="start" x="156.25" y="-149.07" font-family="Times New Roman,serif" font-size="14.00" fill="white">&#45;</text>
<polygon fill="black" stroke="none" points="173,-142 173,-167 198,-167 198,-142 173,-142"/>
<polygon fill="none" stroke="black" points="173,-142 173,-167 198,-167 198,-142 173,-142"/>
<text text-anchor="start" x="182.12" y="-149.07" font-family="Times New Roman,serif" font-size="14.00">*</text>
<polygon fill="white" stroke="none" points="200,-142 200,-167 225,-167 225,-142 200,-142"/>
<polygon fill="none" stroke="black" points="200,-142 200,-167 225,-167 225,-142 200,-142"/>
<text text-anchor="start" x="210.25" y="-149.07" font-family="Times New Roman,serif" font-size="14.00" fill="white">&#45;</text>
<polygon fill="black" stroke="none" points="227,-142 227,-167 252,-167 252,-142 227,-142"/>
<polygon fill="none" stroke="black" points="227,-142 227,-167 252,-167 252,-142 227,-142"/>
<text text-anchor="start" x="236.12" y="-149.07" font-family="Times New Roman,serif" font-size="14.00">*</text>
<polygon fill="black" stroke="none" points="11,-115 11,-140 36,-140 36,-115 11,-115"/>
<polygon fill="none" stroke="black" points="11,-115 11,-140 36,-140 36,-115 11,-115"/>
<text text-anchor="start" x="20.12" y="-122.08" font-family="Times New Roman,serif" font-size="14.00">*</text>
<polygon fill="white" stroke="none" points="38,-115 38,-140 63,-140 63,-115 38,-115"/>
<polygon fill="none" stroke="black" points="38,-115 38,-140 63,-140 63,-115 38,-115"/>
<text text-anchor="start" x="48.25" y="-122.08" font-family="Times New Roman,serif" font-size="14.00" fill="white">&#45;</text>
<polygon fill="black" stroke="none" points="65,-115 65,-140 90,-140 90,-115 65,-115"/>
<polygon fill="none" stroke="black" points="65,-115 65,-140 90,-140 90,-115 65,-115"/>
<text text-anchor="start" x="74.12" y="-122.08" font-family="Times New Roman,serif" font-size="14.00">*</text>
<polygon fill="white" stroke="none" points="92,-115 92,-140 117,-140 117,-115 92,-115"/>
<polygon fill="none" stroke="black" points="92,-115 92,-140 117,-140 117,-115 92,-115"/>
<text text-anchor="start" x="102.25" y="-122.08" font-family="Times New Roman,serif" font-size="14.00" fill="white">&#45;</text>
<polygon fill="black" stroke="none" points="119,-115 119,-140 144,-140 144,-115 119,-115"/>
<polygon fill="none" stroke="black" points="119,-115 119,-140 144,-140 144,-115 119,-115"/>
<text text-anchor="start" x="128.12" y="-122.08" font-family="Times New Roman,serif" font-size="14.00">*</text>
<polygon fill="white" stroke="none" points="146,-115 146,-140 171,-140 171,-115 146,-115"/>
<polygon fill="none" stroke="black" points="146,-115 146,-140 171,-140 171,-115 146,-115"/>
<text text-anchor="start" x="156.25" y="-122.08" font-family="Times New Roman,serif" font-size="14.00" fill="white">&#45;</text>
<polygon fill="black" stroke="none" points="173,-115 173,-140 198,-140 198,-115 173,-115"/>
<polygon fill="none" stroke="black" points="173,-115 173,-140 198,-140 198,-115 173,-115"/>
<text text-anchor="start" x="182.12" y="-122.08" font-family="Times New Roman,serif" font-size="14.00">*</text>
<polygon fill="white" stroke="none" points="200,-115 200,-140 225,-140 225,-115 200,-115"/>
<polygon fill="none" stroke="black" points="200,-115 200,-140 225,-140 225,-115 200,-115"/>
<text text-anchor="start" x="210.25" y="-122.08" font-family="Times New Roman,serif" font-size="14.00" fill="white">&#45;</text>
<polygon fill="black" stroke="none" points="227,-115 227,-140 252,-140 252,-115 227,-115"/>
<polygon fill="none" stroke="black" points="227,-115 227,-140 252,-140 252,-115 227,-115"/>
<text text-anchor="start" x="236.12" y="-122.08" font-family="Times New Roman,serif" font-size="14.00">*</text>
<polygon fill="black" stroke="none" points="11,-88 11,-113 36,-113 36,-88 11,-88"/>
<polygon fill="none" stroke="black" points="11,-88 11,-113 36,-113 36,-88 11,-88"/>
<text text-anchor="start" x="20.12" y="-95.08" font-family="Times New Roman,serif" font-size="14.00">*</text>
<polygon fill="white" stroke="none" points="38,-88 38,-113 63,-113 63,-88 38,-88"/>
<polygon fill="none" stroke="black" points="38,-88 38,-113 63,-113 63,-88 38,-88"/>
<text text-anchor="start" x="48.25" y="-95.08" font-family="Times New Roman,serif" font-size="14.00" fill="white">&#45;</text>
<polygon fill="black" stroke="none" points="65,-88 65,-113 90,-113 90,-88 65,-88"/>
<polygon fill="none" stroke="black" points="65,-88 65,-113 90,-113 90,-88 65,-88"/>
<text text-anchor="start" x="74.12" y="-95.08" font-family="Times New Roman,serif" font-size="14.00">*</text>
<polygon fill="white" stroke="none" points="92,-88 92,-113 117,-113 117,-88 92,-88"/>
<polygon fill="none" stroke="black" points="92,-88 92,-113 117,-113 117,-88 92,-88"/>
<text text-anchor="start" x="102.25" y="-95.08" font-family="Times New Roman,serif" font-size="14.00" fill="white">&#45;</text>
<polygon fill="white" stroke="none" points="119,-88 119,-113 144,-113 144,-88 119,-88"/>
<polygon fill="none" stroke="black" points="119,-88 119,-113 144,-113 144,-88 119,-88"/>
<text text-anchor="start" x="129.25" y="-95.08" font-family="Times New Roman,serif" font-size="14.00" fill="white">&#45;</text>
<polygon fill="white" stroke="none" points="146,-88 146,-113 171,-113 171,-88 146,-88"/>
<polygon fill="none" stroke="black" points="146,-88 146,-113 171,-113 171,-88 146,-88"/>
<text text-anchor="start" x="156.25" y="-95.08" font-family="Times New Roman,serif" font-size="14.00" fill="white">&#45;</text>
<polygon fill="black" stroke="none" points="173,-88 173,-113 198,-113 198,-88 173,-88"/>
<polygon fill="none" stroke="black" points="173,-88 173,-113 198,-113 198,-88 173,-88"/>
<text text-anchor="start" x="182.12" y="-95.08" font-family="Times New Roman,serif" font-size="14.00">*</text>
<polygon fill="white" stroke="none" points="200,-88 200,-113 225,-113 225,-88 200,-88"/>
<polygon fill="none" stroke="black" points="200,-88 200,-113 225,-113 225,-88 200,-88"/>
<text text-anchor="start" x="210.25" y="-95.08" font-family="Times New Roman,serif" font-size="14.00" fill="white">&#45;</text>
<polygon fill="black" stroke="none" points="227,-88 227,-113 252,-113 252,-88 227,-88"/>
<polygon fill="none" stroke="black" points="227,-88 227,-113 252,-113 252,-88 227,-88"/>
<text text-anchor="start" x="236.12" y="-95.08" font-family="Times New Roman,serif" font-size="14.00">*</text>
<polygon fill="black" stroke="none" points="11,-61 11,-86 36,-86 36,-61 11,-61"/>
<polygon fill="none" stroke="black" points="11,-61 11,-86 36,-86 36,-61 11,-61"/>
<text text-anchor="start" x="20.12" y="-68.08" font-family="Times New Roman,serif" font-size="14.00">*</text>
<polygon fill="white" stroke="none" points="38,-61 38,-86 63,-86 63,-61 38,-61"/>
<polygon fill="none" stroke="black" points="38,-61 38,-86 63,-86 63,-61 38,-61"/>
<text text-anchor="start" x="48.25" y="-68.08" font-family="Times New Roman,serif" font-size="14.00" fill="white">&#45;</text>
<polygon fill="black" stroke="none" points="65,-61 65,-86 90,-86 90,-61 65,-61"/>
<polygon fill="none" stroke="black" points="65,-61 65,-86 90,-86 90,-61 65,-61"/>
<text text-anchor="start" x="74.12" y="-68.08" font-family="Times New Roman,serif" font-size="14.00">*</text>
<polygon fill="white" stroke="none" points="92,-61 92,-86 117,-86 117,-61 92,-61"/>
<polygon fill="none" stroke="black" points="92,-61 92,-86 117,-86 117,-61 92,-61"/>
<text text-anchor="start" x="102.25" y="-68.08" font-family="Times New Roman,serif" font-size="14.00" fill="white">&#45;</text>
<polygon fill="black" stroke="none" points="119,-61 119,-86 144,-86 144,-61 119,-61"/>
<polygon fill="none" stroke="black" points="119,-61 119,-86 144,-86 144,-61 119,-61"/>
<text text-anchor="start" x="128.12" y="-68.08" font-family="Times New Roman,serif" font-size="14.00">*</text>
<polygon fill="tomato" stroke="none" points="146,-61 146,-86 171,-86 171,-61 146,-61"/>
<polygon fill="none" stroke="black" points="146,-61 146,-86 171,-86 171,-61 146,-61"/>
<text text-anchor="start" x="154" y="-68.08" font-family="Times New Roman,serif" font-size="14.00">B</text>
<polygon fill="black" stroke="none" points="173,-61 173,-86 198,-86 198,-61 173,-61"/>
<polygon fill="none" stroke="black" points="173,-61 173,-86 198,-86 198,-61 173,-61"/>
<text text-anchor="start" x="182.12" y="-68.08" font-family="Times New Roman,serif" font-size="14.00">*</text>
<polygon fill="white" stroke="none" points="200,-61 200,-86 225,-86 225,-61 200,-61"/>
<polygon fill="none" stroke="black" points="200,-61 200,-86 225,-86 225,-61 200,-61"/>
<text text-anchor="start" x="210.25" y="-68.08" font-family="Times New Roman,serif" font-size="14.00" fill="white">&#45;</text>
<polygon fill="black" stroke="none" points="227,-61 227,-86 252,-86 252,-61 227,-61"/>
<polygon fill="none" stroke="black" points="227,-61 227,-86 252,-86 252,-61 227,-61"/>
<text text-anchor="start" x="236.12" y="-68.08" font-family="Times New Roman,serif" font-size="14.00">*</text>
<polygon fill="black" stroke="none" points="11,-34 11,-59 36,-59 36,-34 11,-34"/>
<polygon fill="none" stroke="black" points="11,-34 11,-59 36,-59 36,-34 11,-34"/>
<text text-anchor="start" x="20.12" y="-41.08" font-family="Times New Roman,serif" font-size="14.00">*</text>
<polygon fill="white" stroke="none" points="38,-34 38,-59 63,-59 63,-34 38,-34"/>
<polygon fill="none" stroke="black" points="38,-34 38,-59 63,-59 63,-34 38,-34"/>
<text text-anchor="start" x="48.25" y="-41.08" font-family="Times New Roman,serif" font-size="14.00" fill="white">&#45;</text>
<polygon fill="black" stroke="none" points="65,-34 65,-59 90,-59 90,-34 65,-34"/>
<polygon fill="none" stroke="black" points="65,-34 65,-59 90,-59 90,-34 65,-34"/>
<text text-anchor="start" x="74.12" y="-41.08" font-family="Times New Roman,serif" font-size="14.00">*</text>
<polygon fill="white" stroke="none" points="92,-34 92,-59 117,-59 117,-34 92,-34"/>
<polygon fill="none" stroke="black" points="92,-34 92,-59 117,-59 117,-34 92,-34"/>
<text text-anchor="start" x="102.25" y="-41.08" font-family="Times New Roman,serif" font-size="14.00" fill="white">&#45;</text>
<polygon fill="black" stroke="none" points="119,-34 119,-59 144,-59 144,-34 119,-34"/>
<polygon fill="none" stroke="black" points="119,-34 119,-59 144,-59 144,-34 119,-34"/>
<text text-anchor="start" x="128.12" y="-41.08" font-family="Times New Roman,serif" font-size="14.00">*</text>
<polygon fill="white" stroke="none" points="146,-34 146,-59 171,-59 171,-34 146,-34"/>
<polygon fill="none" stroke="black" points="146,-34 146,-59 171,-59 171,-34 146,-34"/>
<text text-anchor="start" x="156.25" y="-41.08" font-family="Times New Roman,serif" font-size="14.00" fill="white">&#45;</text>
<polygon fill="white" stroke="none" points="173,-34 173,-59 198,-59 198,-34 173,-34"/>
<polygon fill="none" stroke="black" points="173,-34 173,-59 198,-59 198,-34 173,-34"/>
<text text-anchor="start" x="183.25" y="-41.08" font-family="Times New Roman,serif" font-size="14.00" fill="white">&#45;</text>
<polygon fill="white" stroke="none" points="200,-34 200,-59 225,-59 225,-34 200,-34"/>
<polygon fill="none" stroke="black" points="200,-34 200,-59 225,-59 225,-34 200,-34"/>
<text text-anchor="start" x="210.25" y="-41.08" font-family="Times New Roman,serif" font-size="14.00" fill="white">&#45;</text>
<polygon fill="black" stroke="none" points="227,-34 227,-59 252,-59 252,-34 227,-34"/>
<polygon fill="none" stroke="black" points="227,-34 227,-59 252,-59 252,-34 227,-34"/>
<text text-anchor="start" x="236.12" y="-41.08" font-family="Times New Roman,serif" font-size="14.00">*</text>
<polygon fill="black" stroke="none" points="11,-7 11,-32 36,-32 36,-7 11,-7"/>
<polygon fill="none" stroke="black" points="11,-7 11,-32 36,-32 36,-7 11,-7"/>
<text text-anchor="start" x="20.12" y="-14.07" font-family="Times New Roman,serif" font-size="14.00">*</text>
<polygon fill="black" stroke="none" points="38,-7 38,-32 63,-32 63,-7 38,-7"/>
<polygon fill="none" stroke="black" points="38,-7 38,-32 63,-32 63,-7 38,-7"/>
<text text-anchor="start" x="47.12" y="-14.07" font-family="Times New Roman,serif" font-size="14.00">*</text>
<polygon fill="black" stroke="none" points="65,-7 65,-32 90,-32 90,-7 65,-7"/>
<polygon fill="none" stroke="black" points="65,-7 65,-32 90,-32 90,-7 65,-7"/>
<text text-anchor="start" x="74.12" y="-14.07" font-family="Times New Roman,serif" font-size="14.00">*</text>
<polygon fill="black" stroke="none" points="92,-7 92,-32 117,-32 117,-7 92,-7"/>
<polygon fill="none" stroke="black" points="92,-7 92,-32 117,-32 117,-7 92,-7"/>
<text text-anchor="start" x="101.12" y="-14.07" font-family="Times New Roman,serif" font-size="14.00">*</text>
<polygon fill="black" stroke="none" points="119,-7 119,-32 144,-32 144,-7 119,-7"/>
<polygon fill="none" stroke="black" points="119,-7 119,-32 144,-32 144,-7 119,-7"/>
<text text-anchor="start" x="128.12" y="-14.07" font-family="Times New Roman,serif" font-size="14.00">*</text>
<polygon fill="black" stroke="none" points="146,-7 146,-32 171,-32 171,-7 146,-7"/>
<polygon fill="none" stroke="black" points="146,-7 146,-32 171,-32 171,-7 146,-7"/>
<text text-anchor="start" x="155.12" y="-14.07" font-family="Times New Roman,serif" font-size="14.00">*</text>
<polygon fill="black" stroke="none" points="173,-7 173,-32 198,-32 198,-7 173,-7"/>
<polygon fill="none" stroke="black" points="173,-7 173,-32 198,-32 198,-7 173,-7"/>
<text text-anchor="start" x="182.12" y="-14.07" font-family="Times New Roman,serif" font-size="14.00">*</text>
<polygon fill="black" stroke="none" points="200,-7 200,-32 225,-32 225,-7 200,-7"/>
<polygon fill="none" stroke="black" points="200,-7 200,-32 225,-32 225,-7 200,-7"/>
<text text-anchor="start" x="209.12" y="-14.07" font-family="Times New Roman,serif" font-size="14.00">*</text>
<polygon fill="black" stroke="none" points="227,-7 227,-32 252,-32 252,-7 227,-7"/>
<polygon fill="none" stroke="black" points="227,-7 227,-32 252,-32 252,-7 227,-7"/>
<text text-anchor="start" x="236.12" y="-14.07" font-family="Times New Roman,serif" font-size="14.00">*</text>
<polygon fill="none" stroke="black" points="8,-4 8,-278 255,-278 255,-4 8,-4"/>
</g>
</g>
</svg>
