<?xml version="1.0" encoding="UTF-8" standalone="no"?>
<!DOCTYPE svg PUBLIC "-//W3C//DTD SVG 1.1//EN"
 "http://www.w3.org/Graphics/SVG/1.1/DTD/svg11.dtd">
<!-- Generated by graphviz version 10.0.1 (20240210.2158)
 -->
<!-- Pages: 1 -->
<svg width="433pt" height="290pt"
 viewBox="0.00 0.00 433.00 290.00" xmlns="http://www.w3.org/2000/svg" xmlns:xlink="http://www.w3.org/1999/xlink">
<g id="graph0" class="graph" transform="scale(1 1) rotate(0) translate(4 286)">
<polygon fill="white" stroke="none" points="-4,4 -4,-286 429,-286 429,4 -4,4"/>
<!-- tab -->
<g id="node1" class="node">
<title>tab</title>
<polygon fill="lime" stroke="none" points="11,-250 11,-275 36,-275 36,-250 11,-250"/>
<polygon fill="none" stroke="black" points="11,-250 11,-275 36,-275 36,-250 11,-250"/>
<text text-anchor="start" x="19.38" y="-257.07" font-family="Times New Roman,serif" font-size="14.00">+</text>
<polygon fill="white" stroke="none" points="38,-250 38,-275 63,-275 63,-250 38,-250"/>
<polygon fill="none" stroke="black" points="38,-250 38,-275 63,-275 63,-250 38,-250"/>
<text text-anchor="start" x="48.25" y="-257.07" font-family="Times New Roman,serif" font-size="14.00">&#45;</text>
<polygon fill="black" stroke="none" points="65,-250 65,-275 90,-275 90,-250 65,-250"/>
<polygon fill="none" stroke="black" points="65,-250 65,-275 90,-275 90,-250 65,-250"/>
<text text-anchor="start" x="74.12" y="-257.07" font-family="Times New Roman,serif" font-size="14.00">*</text>
<polygon fill="black" stroke="none" points="92,-250 92,-275 117,-275 117,-250 92,-250"/>
<polygon fill="none" stroke="black" points="92,-250 92,-275 117,-275 117,-250 92,-250"/>
<text text-anchor="start" x="101.12" y="-257.07" font-family="Times New Roman,serif" font-size="14.00">*</text>
<polygon fill="black" stroke="none" points="119,-250 119,-275 144,-275 144,-250 119,-250"/>
<polygon fill="none" stroke="black" points="119,-250 119,-275 144,-275 144,-250 119,-250"/>
<text text-anchor="start" x="128.12" y="-257.07" font-family="Times New Roman,serif" font-size="14.00">*</text>
<polygon fill="black" stroke="none" points="146,-250 146,-275 171,-275 171,-250 146,-250"/>
<polygon fill="none" stroke="black" points="146,-250 146,-275 171,-275 171,-250 146,-250"/>
<text text-anchor="start" x="155.12" y="-257.07" font-family="Times New Roman,serif" font-size="14.00">*</text>
<polygon fill="black" stroke="none" points="173,-250 173,-275 198,-275 198,-250 173,-250"/>
<polygon fill="none" stroke="black" points="173,-250 173,-275 198,-275 198,-250 173,-250"/>
<text text-anchor="start" x="182.12" y="-257.07" font-family="Times New Roman,serif" font-size="14.00">*</text>
<polygon fill="black" stroke="none" points="200,-250 200,-275 225,-275 225,-250 200,-250"/>
<polygon fill="none" stroke="black" points="200,-250 200,-275 225,-275 225,-250 200,-250"/>
<text text-anchor="start" x="209.12" y="-257.07" font-family="Times New Roman,serif" font-size="14.00">*</text>
<polygon fill="black" stroke="none" points="227,-250 227,-275 252,-275 252,-250 227,-250"/>
<polygon fill="none" stroke="black" points="227,-250 227,-275 252,-275 252,-250 227,-250"/>
<text text-anchor="start" x="236.12" y="-257.07" font-family="Times New Roman,serif" font-size="14.00">*</text>
<polygon fill="black" stroke="none" points="254,-250 254,-275 279,-275 279,-250 254,-250"/>
<polygon fill="none" stroke="black" points="254,-250 254,-275 279,-275 279,-250 254,-250"/>
<text text-anchor="start" x="263.12" y="-257.07" font-family="Times New Roman,serif" font-size="14.00">*</text>
<polygon fill="black" stroke="none" points="281,-250 281,-275 306,-275 306,-250 281,-250"/>
<polygon fill="none" stroke="black" points="281,-250 281,-275 306,-275 306,-250 281,-250"/>
<text text-anchor="start" x="290.12" y="-257.07" font-family="Times New Roman,serif" font-size="14.00">*</text>
<polygon fill="black" stroke="none" points="308,-250 308,-275 333,-275 333,-250 308,-250"/>
<polygon fill="none" stroke="black" points="308,-250 308,-275 333,-275 333,-250 308,-250"/>
<text text-anchor="start" x="317.12" y="-257.07" font-family="Times New Roman,serif" font-size="14.00">*</text>
<polygon fill="black" stroke="none" points="335,-250 335,-275 360,-275 360,-250 335,-250"/>
<polygon fill="none" stroke="black" points="335,-250 335,-275 360,-275 360,-250 335,-250"/>
<text text-anchor="start" x="344.12" y="-257.07" font-family="Times New Roman,serif" font-size="14.00">*</text>
<polygon fill="white" stroke="none" points="362,-250 362,-275 387,-275 387,-250 362,-250"/>
<polygon fill="none" stroke="black" points="362,-250 362,-275 387,-275 387,-250 362,-250"/>
<text text-anchor="start" x="372.25" y="-257.07" font-family="Times New Roman,serif" font-size="14.00">&#45;</text>
<polygon fill="black" stroke="none" points="389,-250 389,-275 414,-275 414,-250 389,-250"/>
<polygon fill="none" stroke="black" points="389,-250 389,-275 414,-275 414,-250 389,-250"/>
<text text-anchor="start" x="398.12" y="-257.07" font-family="Times New Roman,serif" font-size="14.00">*</text>
<polygon fill="black" stroke="none" points="11,-223 11,-248 36,-248 36,-223 11,-223"/>
<polygon fill="none" stroke="black" points="11,-223 11,-248 36,-248 36,-223 11,-223"/>
<text text-anchor="start" x="20.12" y="-230.07" font-family="Times New Roman,serif" font-size="14.00">*</text>
<polygon fill="white" stroke="none" points="38,-223 38,-248 63,-248 63,-223 38,-223"/>
<polygon fill="none" stroke="black" points="38,-223 38,-248 63,-248 63,-223 38,-223"/>
<text text-anchor="start" x="48.25" y="-230.07" font-family="Times New Roman,serif" font-size="14.00">&#45;</text>
<polygon fill="black" stroke="none" points="65,-223 65,-248 90,-248 90,-223 65,-223"/>
<polygon fill="none" stroke="black" points="65,-223 65,-248 90,-248 90,-223 65,-223"/>
<text text-anchor="start" x="74.12" y="-230.07" font-family="Times New Roman,serif" font-size="14.00">*</text>
<polygon fill="white" stroke="none" points="92,-223 92,-248 117,-248 117,-223 92,-223"/>
<polygon fill="none" stroke="black" points="92,-223 92,-248 117,-248 117,-223 92,-223"/>
<text text-anchor="start" x="102.25" y="-230.07" font-family="Times New Roman,serif" font-size="14.00">&#45;</text>
<polygon fill="black" stroke="none" points="119,-223 119,-248 144,-248 144,-223 119,-223"/>
<polygon fill="none" stroke="black" points="119,-223 119,-248 144,-248 144,-223 119,-223"/>
<text text-anchor="start" x="128.12" y="-230.07" font-family="Times New Roman,serif" font-size="14.00">*</text>
<polygon fill="white" stroke="none" points="146,-223 146,-248 171,-248 171,-223 146,-223"/>
<polygon fill="none" stroke="black" points="146,-223 146,-248 171,-248 171,-223 146,-223"/>
<text text-anchor="start" x="156.25" y="-230.07" font-family="Times New Roman,serif" font-size="14.00">&#45;</text>
<polygon fill="black" stroke="none" points="173,-223 173,-248 198,-248 198,-223 173,-223"/>
<polygon fill="none" stroke="black" points="173,-223 173,-248 198,-248 198,-223 173,-223"/>
<text text-anchor="start" x="182.12" y="-230.07" font-family="Times New Roman,serif" font-size="14.00">*</text>
<polygon fill="white" stroke="none" points="200,-223 200,-248 225,-248 225,-223 200,-223"/>
<polygon fill="none" stroke="black" points="200,-223 200,-248 225,-248 225,-223 200,-223"/>
<text text-anchor="start" x="210.25" y="-230.07" font-family="Times New Roman,serif" font-size="14.00">&#45;</text>
<polygon fill="white" stroke="none" points="227,-223 227,-248 252,-248 252,-223 227,-223"/>
<polygon fill="none" stroke="black" points="227,-223 227,-248 252,-248 252,-223 227,-223"/>
<text text-anchor="start" x="237.25" y="-230.07" font-family="Times New Roman,serif" font-size="14.00">&#45;</text>
<polygon fill="white" stroke="none" points="254,-223 254,-248 279,-248 279,-223 254,-223"/>
<polygon fill="none" stroke="black" points="254,-223 254,-248 279,-248 279,-223 254,-223"/>
<text text-anchor="start" x="264.25" y="-230.07" font-family="Times New Roman,serif" font-size="14.00">&#45;</text>
<polygon fill="black" stroke="none" points="281,-223 281,-248 306,-248 306,-223 281,-223"/>
<polygon fill="none" stroke="black" points="281,-223 281,-248 306,-248 306,-223 281,-223"/>
<text text-anchor="start" x="290.12" y="-230.07" font-family="Times New Roman,serif" font-size="14.00">*</text>
<polygon fill="white" stroke="none" points="308,-223 308,-248 333,-248 333,-223 308,-223"/>
<polygon fill="none" stroke="black" points="308,-223 308,-248 333,-248 333,-223 308,-223"/>
<text text-anchor="start" x="318.25" y="-230.07" font-family="Times New Roman,serif" font-size="14.00">&#45;</text>
<polygon fill="white" stroke="none" points="335,-223 335,-248 360,-248 360,-223 335,-223"/>
<polygon fill="none" stroke="black" points="335,-223 335,-248 360,-248 360,-223 335,-223"/>
<text text-anchor="start" x="345.25" y="-230.07" font-family="Times New Roman,serif" font-size="14.00">&#45;</text>
<polygon fill="white" stroke="none" points="362,-223 362,-248 387,-248 387,-223 362,-223"/>
<polygon fill="none" stroke="black" points="362,-223 362,-248 387,-248 387,-223 362,-223"/>
<text text-anchor="start" x="372.25" y="-230.07" font-family="Times New Roman,serif" font-size="14.00">&#45;</text>
<polygon fill="black" stroke="none" points="389,-223 389,-248 414,-248 414,-223 389,-223"/>
<polygon fill="none" stroke="black" points="389,-223 389,-248 414,-248 414,-223 389,-223"/>
<text text-anchor="start" x="398.12" y="-230.07" font-family="Times New Roman,serif" font-size="14.00">*</text>
<polygon fill="black" stroke="none" points="11,-196 11,-221 36,-221 36,-196 11,-196"/>
<polygon fill="none" stroke="black" points="11,-196 11,-221 36,-221 36,-196 11,-196"/>
<text text-anchor="start" x="20.12" y="-203.07" font-family="Times New Roman,serif" font-size="14.00">*</text>
<polygon fill="white" stroke="none" points="38,-196 38,-221 63,-221 63,-196 38,-196"/>
<polygon fill="none" stroke="black" points="38,-196 38,-221 63,-221 63,-196 38,-196"/>
<text text-anchor="start" x="48.25" y="-203.07" font-family="Times New Roman,serif" font-size="14.00">&#45;</text>
<polygon fill="white" stroke="none" points="65,-196 65,-221 90,-221 90,-196 65,-196"/>
<polygon fill="none" stroke="black" points="65,-196 65,-221 90,-221 90,-196 65,-196"/>
<text text-anchor="start" x="75.25" y="-203.07" font-family="Times New Roman,serif" font-size="14.00">&#45;</text>
<polygon fill="white" stroke="none" points="92,-196 92,-221 117,-221 117,-196 92,-196"/>
<polygon fill="none" stroke="black" points="92,-196 92,-221 117,-221 117,-196 92,-196"/>
<text text-anchor="start" x="102.25" y="-203.07" font-family="Times New Roman,serif" font-size="14.00">&#45;</text>
<polygon fill="black" stroke="none" points="119,-196 119,-221 144,-221 144,-196 119,-196"/>
<polygon fill="none" stroke="black" points="119,-196 119,-221 144,-221 144,-196 119,-196"/>
<text text-anchor="start" x="128.12" y="-203.07" font-family="Times New Roman,serif" font-size="14.00">*</text>
<polygon fill="white" stroke="none" points="146,-196 146,-221 171,-221 171,-196 146,-196"/>
<polygon fill="none" stroke="black" points="146,-196 146,-221 171,-221 171,-196 146,-196"/>
<text text-anchor="start" x="156.25" y="-203.07" font-family="Times New Roman,serif" font-size="14.00">&#45;</text>
<polygon fill="black" stroke="none" points="173,-196 173,-221 198,-221 198,-196 173,-196"/>
<polygon fill="none" stroke="black" points="173,-196 173,-221 198,-221 198,-196 173,-196"/>
<text text-anchor="start" x="182.12" y="-203.07" font-family="Times New Roman,serif" font-size="14.00">*</text>
<polygon fill="white" stroke="none" points="200,-196 200,-221 225,-221 225,-196 200,-196"/>
<polygon fill="none" stroke="black" points="200,-196 200,-221 225,-221 225,-196 200,-196"/>
<text text-anchor="start" x="210.25" y="-203.07" font-family="Times New Roman,serif" font-size="14.00">&#45;</text>
<polygon fill="black" stroke="none" points="227,-196 227,-221 252,-221 252,-196 227,-196"/>
<polygon fill="none" stroke="black" points="227,-196 227,-221 252,-221 252,-196 227,-196"/>
<text text-anchor="start" x="236.12" y="-203.07" font-family="Times New Roman,serif" font-size="14.00">*</text>
<polygon fill="white" stroke="none" points="254,-196 254,-221 279,-221 279,-196 254,-196"/>
<polygon fill="none" stroke="black" points="254,-196 254,-221 279,-221 279,-196 254,-196"/>
<text text-anchor="start" x="264.25" y="-203.07" font-family="Times New Roman,serif" font-size="14.00">&#45;</text>
<polygon fill="black" stroke="none" points="281,-196 281,-221 306,-221 306,-196 281,-196"/>
<polygon fill="none" stroke="black" points="281,-196 281,-221 306,-221 306,-196 281,-196"/>
<text text-anchor="start" x="290.12" y="-203.07" font-family="Times New Roman,serif" font-size="14.00">*</text>
<polygon fill="white" stroke="none" points="308,-196 308,-221 333,-221 333,-196 308,-196"/>
<polygon fill="none" stroke="black" points="308,-196 308,-221 333,-221 333,-196 308,-196"/>
<text text-anchor="start" x="318.25" y="-203.07" font-family="Times New Roman,serif" font-size="14.00">&#45;</text>
<polygon fill="black" stroke="none" points="335,-196 335,-221 360,-221 360,-196 335,-196"/>
<polygon fill="none" stroke="black" points="335,-196 335,-221 360,-221 360,-196 335,-196"/>
<text text-anchor="start" x="344.12" y="-203.07" font-family="Times New Roman,serif" font-size="14.00">*</text>
<polygon fill="white" stroke="none" points="362,-196 362,-221 387,-221 387,-196 362,-196"/>
<polygon fill="none" stroke="black" points="362,-196 362,-221 387,-221 387,-196 362,-196"/>
<text text-anchor="start" x="372.25" y="-203.07" font-family="Times New Roman,serif" font-size="14.00">&#45;</text>
<polygon fill="black" stroke="none" points="389,-196 389,-221 414,-221 414,-196 389,-196"/>
<polygon fill="none" stroke="black" points="389,-196 389,-221 414,-221 414,-196 389,-196"/>
<text text-anchor="start" x="398.12" y="-203.07" font-family="Times New Roman,serif" font-size="14.00">*</text>
<polygon fill="black" stroke="none" points="11,-169 11,-194 36,-194 36,-169 11,-169"/>
<polygon fill="none" stroke="black" points="11,-169 11,-194 36,-194 36,-169 11,-169"/>
<text text-anchor="start" x="20.12" y="-176.07" font-family="Times New Roman,serif" font-size="14.00">*</text>
<polygon fill="black" stroke="none" points="38,-169 38,-194 63,-194 63,-169 38,-169"/>
<polygon fill="none" stroke="black" points="38,-169 38,-194 63,-194 63,-169 38,-169"/>
<text text-anchor="start" x="47.12" y="-176.07" font-family="Times New Roman,serif" font-size="14.00">*</text>
<polygon fill="tomato" stroke="none" points="65,-169 65,-194 90,-194 90,-169 65,-169"/>
<polygon fill="none" stroke="black" points="65,-169 65,-194 90,-194 90,-169 65,-169"/>
<text text-anchor="start" x="72.62" y="-176.07" font-family="Times New Roman,serif" font-size="14.00">A</text>
<polygon fill="black" stroke="none" points="92,-169 92,-194 117,-194 117,-169 92,-169"/>
<polygon fill="none" stroke="black" points="92,-169 92,-194 117,-194 117,-169 92,-169"/>
<text text-anchor="start" x="101.12" y="-176.07" font-family="Times New Roman,serif" font-size="14.00">*</text>
<polygon fill="black" stroke="none" points="119,-169 119,-194 144,-194 144,-169 119,-169"/>
<polygon fill="none" stroke="black" points="119,-169 119,-194 144,-194 144,-169 119,-169"/>
<text text-anchor="start" x="128.12" y="-176.07" font-family="Times New Roman,serif" font-size="14.00">*</text>
<polygon fill="white" stroke="none" points="146,-169 146,-194 171,-194 171,-169 146,-169"/>
<polygon fill="none" stroke="black" points="146,-169 146,-194 171,-194 171,-169 146,-169"/>
<text text-anchor="start" x="156.25" y="-176.07" font-family="Times New Roman,serif" font-size="14.00">&#45;</text>
<polygon fill="black" stroke="none" points="173,-169 173,-194 198,-194 198,-169 173,-169"/>
<polygon fill="none" stroke="black" points="173,-169 173,-194 198,-194 198,-169 173,-169"/>
<text text-anchor="start" x="182.12" y="-176.07" font-family="Times New Roman,serif" font-size="14.00">*</text>
<polygon fill="white" stroke="none" points="200,-169 200,-194 225,-194 225,-169 200,-169"/>
<polygon fill="none" stroke="black" points="200,-169 200,-194 225,-194 225,-169 200,-169"/>
<text text-anchor="start" x="210.25" y="-176.07" font-family="Times New Roman,serif" font-size="14.00">&#45;</text>
<polygon fill="black" stroke="none" points="227,-169 227,-194 252,-194 252,-169 227,-169"/>
<polygon fill="none" stroke="black" points="227,-169 227,-194 252,-194 252,-169 227,-169"/>
<text text-anchor="start" x="236.12" y="-176.07" font-family="Times New Roman,serif" font-size="14.00">*</text>
<polygon fill="white" stroke="none" points="254,-169 254,-194 279,-194 279,-169 254,-169"/>
<polygon fill="none" stroke="black" points="254,-169 254,-194 279,-194 279,-169 254,-169"/>
<text text-anchor="start" x="264.25" y="-176.07" font-family="Times New Roman,serif" font-size="14.00">&#45;</text>
<polygon fill="black" stroke="none" points="281,-169 281,-194 306,-194 306,-169 281,-169"/>
<polygon fill="none" stroke="black" points="281,-169 281,-194 306,-194 306,-169 281,-169"/>
<text text-anchor="start" x="290.12" y="-176.07" font-family="Times New Roman,serif" font-size="14.00">*</text>
<polygon fill="white" stroke="none" points="308,-169 308,-194 333,-194 333,-169 308,-169"/>
<polygon fill="none" stroke="black" points="308,-169 308,-194 333,-194 333,-169 308,-169"/>
<text text-anchor="start" x="318.25" y="-176.07" font-family="Times New Roman,serif" font-size="14.00">&#45;</text>
<polygon fill="black" stroke="none" points="335,-169 335,-194 360,-194 360,-169 335,-169"/>
<polygon fill="none" stroke="black" points="335,-169 335,-194 360,-194 360,-169 335,-169"/>
<text text-anchor="start" x="344.12" y="-176.07" font-family="Times New Roman,serif" font-size="14.00">*</text>
<polygon fill="white" stroke="none" points="362,-169 362,-194 387,-194 387,-169 362,-169"/>
<polygon fill="none" stroke="black" points="362,-169 362,-194 387,-194 387,-169 362,-169"/>
<text text-anchor="start" x="372.25" y="-176.07" font-family="Times New Roman,serif" font-size="14.00">&#45;</text>
<polygon fill="black" stroke="none" points="389,-169 389,-194 414,-194 414,-169 389,-169"/>
<polygon fill="none" stroke="black" points="389,-169 389,-194 414,-194 414,-169 389,-169"/>
<text text-anchor="start" x="398.12" y="-176.07" font-family="Times New Roman,serif" font-size="14.00">*</text>
<polygon fill="white" stroke="none" points="11,-142 11,-167 36,-167 36,-142 11,-142"/>
<polygon fill="none" stroke="black" points="11,-142 11,-167 36,-167 36,-142 11,-142"/>
<text text-anchor="start" x="21.25" y="-149.07" font-family="Times New Roman,serif" font-size="14.00">&#45;</text>
<polygon fill="white" stroke="none" points="38,-142 38,-167 63,-167 63,-142 38,-142"/>
<polygon fill="none" stroke="black" points="38,-142 38,-167 63,-167 63,-142 38,-142"/>
<text text-anchor="start" x="48.25" y="-149.07" font-family="Times New Roman,serif" font-size="14.00">&#45;</text>
<polygon fill="white" stroke="none" points="65,-142 65,-167 90,-167 90,-142 65,-142"/>
<polygon fill="none" stroke="black" points="65,-142 65,-167 90,-167 90,-142 65,-142"/>
<text text-anchor="start" x="75.25" y="-149.07" font-family="Times New Roman,serif" font-size="14.00">&#45;</text>
<polygon fill="white" stroke="none" points="92,-142 92,-167 117,-167 117,-142 92,-142"/>
<polygon fill="none" stroke="black" points="92,-142 92,-167 117,-167 117,-142 92,-142"/>
<text text-anchor="start" x="102.25" y="-149.07" font-family="Times New Roman,serif" font-size="14.00">&#45;</text>
<polygon fill="tomato" stroke="none" points="119,-142 119,-167 144,-167 144,-142 119,-142"/>
<polygon fill="none" stroke="black" points="119,-142 119,-167 144,-167 144,-142 119,-142"/>
<text text-anchor="start" x="126.62" y="-149.07" font-family="Times New Roman,serif" font-size="14.00">X</text>
<polygon fill="white" stroke="none" points="146,-142 146,-167 171,-167 171,-142 146,-142"/>
<polygon fill="none" stroke="black" points="146,-142 146,-167 171,-167 171,-142 146,-142"/>
<text text-anchor="start" x="156.25" y="-149.07" font-family="Times New Roman,serif" font-size="14.00">&#45;</text>
<polygon fill="black" stroke="none" points="173,-142 173,-167 198,-167 198,-142 173,-142"/>
<polygon fill="none" stroke="black" points="173,-142 173,-167 198,-167 198,-142 173,-142"/>
<text text-anchor="start" x="182.12" y="-149.07" font-family="Times New Roman,serif" font-size="14.00">*</text>
<polygon fill="white" stroke="none" points="200,-142 200,-167 225,-167 225,-142 200,-142"/>
<polygon fill="none" stroke="black" points="200,-142 200,-167 225,-167 225,-142 200,-142"/>
<text text-anchor="start" x="210.25" y="-149.07" font-family="Times New Roman,serif" font-size="14.00">&#45;</text>
<polygon fill="black" stroke="none" points="227,-142 227,-167 252,-167 252,-142 227,-142"/>
<polygon fill="none" stroke="black" points="227,-142 227,-167 252,-167 252,-142 227,-142"/>
<text text-anchor="start" x="236.12" y="-149.07" font-family="Times New Roman,serif" font-size="14.00">*</text>
<polygon fill="white" stroke="none" points="254,-142 254,-167 279,-167 279,-142 254,-142"/>
<polygon fill="none" stroke="black" points="254,-142 254,-167 279,-167 279,-142 254,-142"/>
<text text-anchor="start" x="264.25" y="-149.07" font-family="Times New Roman,serif" font-size="14.00">&#45;</text>
<polygon fill="black" stroke="none" points="281,-142 281,-167 306,-167 306,-142 281,-142"/>
<polygon fill="none" stroke="black" points="281,-142 281,-167 306,-167 306,-142 281,-142"/>
<text text-anchor="start" x="290.12" y="-149.07" font-family="Times New Roman,serif" font-size="14.00">*</text>
<polygon fill="white" stroke="none" points="308,-142 308,-167 333,-167 333,-142 308,-142"/>
<polygon fill="none" stroke="black" points="308,-142 308,-167 333,-167 333,-142 308,-142"/>
<text text-anchor="start" x="318.25" y="-149.07" font-family="Times New Roman,serif" font-size="14.00">&#45;</text>
<polygon fill="black" stroke="none" points="335,-142 335,-167 360,-167 360,-142 335,-142"/>
<polygon fill="none" stroke="black" points="335,-142 335,-167 360,-167 360,-142 335,-142"/>
<text text-anchor="start" x="344.12" y="-149.07" font-family="Times New Roman,serif" font-size="14.00">*</text>
<polygon fill="white" stroke="none" points="362,-142 362,-167 387,-167 387,-142 362,-142"/>
<polygon fill="none" stroke="black" points="362,-142 362,-167 387,-167 387,-142 362,-142"/>
<text text-anchor="start" x="372.25" y="-149.07" font-family="Times New Roman,serif" font-size="14.00">&#45;</text>
<polygon fill="black" stroke="none" points="389,-142 389,-167 414,-167 414,-142 389,-142"/>
<polygon fill="none" stroke="black" points="389,-142 389,-167 414,-167 414,-142 389,-142"/>
<text text-anchor="start" x="398.12" y="-149.07" font-family="Times New Roman,serif" font-size="14.00">*</text>
<polygon fill="black" stroke="none" points="11,-115 11,-140 36,-140 36,-115 11,-115"/>
<polygon fill="none" stroke="black" points="11,-115 11,-140 36,-140 36,-115 11,-115"/>
<text text-anchor="start" x="20.12" y="-122.08" font-family="Times New Roman,serif" font-size="14.00">*</text>
<polygon fill="black" stroke="none" points="38,-115 38,-140 63,-140 63,-115 38,-115"/>
<polygon fill="none" stroke="black" points="38,-115 38,-140 63,-140 63,-115 38,-115"/>
<text text-anchor="start" x="47.12" y="-122.08" font-family="Times New Roman,serif" font-size="14.00">*</text>
<polygon fill="black" stroke="none" points="65,-115 65,-140 90,-140 90,-115 65,-115"/>
<polygon fill="none" stroke="black" points="65,-115 65,-140 90,-140 90,-115 65,-115"/>
<text text-anchor="start" x="74.12" y="-122.08" font-family="Times New Roman,serif" font-size="14.00">*</text>
<polygon fill="black" stroke="none" points="92,-115 92,-140 117,-140 117,-115 92,-115"/>
<polygon fill="none" stroke="black" points="92,-115 92,-140 117,-140 117,-115 92,-115"/>
<text text-anchor="start" x="101.12" y="-122.08" font-family="Times New Roman,serif" font-size="14.00">*</text>
<polygon fill="black" stroke="none" points="119,-115 119,-140 144,-140 144,-115 119,-115"/>
<polygon fill="none" stroke="black" points="119,-115 119,-140 144,-140 144,-115 119,-115"/>
<text text-anchor="start" x="128.12" y="-122.08" font-family="Times New Roman,serif" font-size="14.00">*</text>
<polygon fill="white" stroke="none" points="146,-115 146,-140 171,-140 171,-115 146,-115"/>
<polygon fill="none" stroke="black" points="146,-115 146,-140 171,-140 171,-115 146,-115"/>
<text text-anchor="start" x="156.25" y="-122.08" font-family="Times New Roman,serif" font-size="14.00">&#45;</text>
<polygon fill="black" stroke="none" points="173,-115 173,-140 198,-140 198,-115 173,-115"/>
<polygon fill="none" stroke="black" points="173,-115 173,-140 198,-140 198,-115 173,-115"/>
<text text-anchor="start" x="182.12" y="-122.08" font-family="Times New Roman,serif" font-size="14.00">*</text>
<polygon fill="white" stroke="none" points="200,-115 200,-140 225,-140 225,-115 200,-115"/>
<polygon fill="none" stroke="black" points="200,-115 200,-140 225,-140 225,-115 200,-115"/>
<text text-anchor="start" x="210.25" y="-122.08" font-family="Times New Roman,serif" font-size="14.00">&#45;</text>
<polygon fill="black" stroke="none" points="227,-115 227,-140 252,-140 252,-115 227,-115"/>
<polygon fill="none" stroke="black" points="227,-115 227,-140 252,-140 252,-115 227,-115"/>
<text text-anchor="start" x="236.12" y="-122.08" font-family="Times New Roman,serif" font-size="14.00">*</text>
<polygon fill="white" stroke="none" points="254,-115 254,-140 279,-140 279,-115 254,-115"/>
<polygon fill="none" stroke="black" points="254,-115 254,-140 279,-140 279,-115 254,-115"/>
<text text-anchor="start" x="264.25" y="-122.08" font-family="Times New Roman,serif" font-size="14.00">&#45;</text>
<polygon fill="black" stroke="none" points="281,-115 281,-140 306,-140 306,-115 281,-115"/>
<polygon fill="none" stroke="black" points="281,-115 281,-140 306,-140 306,-115 281,-115"/>
<text text-anchor="start" x="290.12" y="-122.08" font-family="Times New Roman,serif" font-size="14.00">*</text>
<polygon fill="white" stroke="none" points="308,-115 308,-140 333,-140 333,-115 308,-115"/>
<polygon fill="none" stroke="black" points="308,-115 308,-140 333,-140 333,-115 308,-115"/>
<text text-anchor="start" x="318.25" y="-122.08" font-family="Times New Roman,serif" font-size="14.00">&#45;</text>
<polygon fill="black" stroke="none" points="335,-115 335,-140 360,-140 360,-115 335,-115"/>
<polygon fill="none" stroke="black" points="335,-115 335,-140 360,-140 360,-115 335,-115"/>
<text text-anchor="start" x="344.12" y="-122.08" font-family="Times New Roman,serif" font-size="14.00">*</text>
<polygon fill="white" stroke="none" points="362,-115 362,-140 387,-140 387,-115 362,-115"/>
<polygon fill="none" stroke="black" points="362,-115 362,-140 387,-140 387,-115 362,-115"/>
<text text-anchor="start" x="372.25" y="-122.08" font-family="Times New Roman,serif" font-size="14.00">&#45;</text>
<polygon fill="black" stroke="none" points="389,-115 389,-140 414,-140 414,-115 389,-115"/>
<polygon fill="none" stroke="black" points="389,-115 389,-140 414,-140 414,-115 389,-115"/>
<text text-anchor="start" x="398.12" y="-122.08" font-family="Times New Roman,serif" font-size="14.00">*</text>
<polygon fill="black" stroke="none" points="11,-88 11,-113 36,-113 36,-88 11,-88"/>
<polygon fill="none" stroke="black" points="11,-88 11,-113 36,-113 36,-88 11,-88"/>
<text text-anchor="start" x="20.12" y="-95.08" font-family="Times New Roman,serif" font-size="14.00">*</text>
<polygon fill="white" stroke="none" points="38,-88 38,-113 63,-113 63,-88 38,-88"/>
<polygon fill="none" stroke="black" points="38,-88 38,-113 63,-113 63,-88 38,-88"/>
<text text-anchor="start" x="48.25" y="-95.08" font-family="Times New Roman,serif" font-size="14.00">&#45;</text>
<polygon fill="white" stroke="none" points="65,-88 65,-113 90,-113 90,-88 65,-88"/>
<polygon fill="none" stroke="black" points="65,-88 65,-113 90,-113 90,-88 65,-88"/>
<text text-anchor="start" x="75.25" y="-95.08" font-family="Times New Roman,serif" font-size="14.00">&#45;</text>
<polygon fill="white" stroke="none" points="92,-88 92,-113 117,-113 117,-88 92,-88"/>
<polygon fill="none" stroke="black" points="92,-88 92,-113 117,-113 117,-88 92,-88"/>
<text text-anchor="start" x="102.25" y="-95.08" font-family="Times New Roman,serif" font-size="14.00">&#45;</text>
<polygon fill="white" stroke="none" points="119,-88 119,-113 144,-113 144,-88 119,-88"/>
<polygon fill="none" stroke="black" points="119,-88 119,-113 144,-113 144,-88 119,-88"/>
<text text-anchor="start" x="129.25" y="-95.08" font-family="Times New Roman,serif" font-size="14.00">&#45;</text>
<polygon fill="white" stroke="none" points="146,-88 146,-113 171,-113 171,-88 146,-88"/>
<polygon fill="none" stroke="black" points="146,-88 146,-113 171,-113 171,-88 146,-88"/>
<text text-anchor="start" x="156.25" y="-95.08" font-family="Times New Roman,serif" font-size="14.00">&#45;</text>
<polygon fill="tomato" stroke="none" points="173,-88 173,-113 198,-113 198,-88 173,-88"/>
<polygon fill="none" stroke="black" points="173,-88 173,-113 198,-113 198,-88 173,-88"/>
<text text-anchor="start" x="181" y="-95.08" font-family="Times New Roman,serif" font-size="14.00">B</text>
<polygon fill="white" stroke="none" points="200,-88 200,-113 225,-113 225,-88 200,-88"/>
<polygon fill="none" stroke="black" points="200,-88 200,-113 225,-113 225,-88 200,-88"/>
<text text-anchor="start" x="210.25" y="-95.08" font-family="Times New Roman,serif" font-size="14.00">&#45;</text>
<polygon fill="black" stroke="none" points="227,-88 227,-113 252,-113 252,-88 227,-88"/>
<polygon fill="none" stroke="black" points="227,-88 227,-113 252,-113 252,-88 227,-88"/>
<text text-anchor="start" x="236.12" y="-95.08" font-family="Times New Roman,serif" font-size="14.00">*</text>
<polygon fill="white" stroke="none" points="254,-88 254,-113 279,-113 279,-88 254,-88"/>
<polygon fill="none" stroke="black" points="254,-88 254,-113 279,-113 279,-88 254,-88"/>
<text text-anchor="start" x="264.25" y="-95.08" font-family="Times New Roman,serif" font-size="14.00">&#45;</text>
<polygon fill="black" stroke="none" points="281,-88 281,-113 306,-113 306,-88 281,-88"/>
<polygon fill="none" stroke="black" points="281,-88 281,-113 306,-113 306,-88 281,-88"/>
<text text-anchor="start" x="290.12" y="-95.08" font-family="Times New Roman,serif" font-size="14.00">*</text>
<polygon fill="white" stroke="none" points="308,-88 308,-113 333,-113 333,-88 308,-88"/>
<polygon fill="none" stroke="black" points="308,-88 308,-113 333,-113 333,-88 308,-88"/>
<text text-anchor="start" x="318.25" y="-95.08" font-family="Times New Roman,serif" font-size="14.00">&#45;</text>
<polygon fill="black" stroke="none" points="335,-88 335,-113 360,-113 360,-88 335,-88"/>
<polygon fill="none" stroke="black" points="335,-88 335,-113 360,-113 360,-88 335,-88"/>
<text text-anchor="start" x="344.12" y="-95.08" font-family="Times New Roman,serif" font-size="14.00">*</text>
<polygon fill="white" stroke="none" points="362,-88 362,-113 387,-113 387,-88 362,-88"/>
<polygon fill="none" stroke="black" points="362,-88 362,-113 387,-113 387,-88 362,-88"/>
<text text-anchor="start" x="372.25" y="-95.08" font-family="Times New Roman,serif" font-size="14.00">&#45;</text>
<polygon fill="black" stroke="none" points="389,-88 389,-113 414,-113 414,-88 389,-88"/>
<polygon fill="none" stroke="black" points="389,-88 389,-113 414,-113 414,-88 389,-88"/>
<text text-anchor="start" x="398.12" y="-95.08" font-family="Times New Roman,serif" font-size="14.00">*</text>
<polygon fill="black" stroke="none" points="11,-61 11,-86 36,-86 36,-61 11,-61"/>
<polygon fill="none" stroke="black" points="11,-61 11,-86 36,-86 36,-61 11,-61"/>
<text text-anchor="start" x="20.12" y="-68.08" font-family="Times New Roman,serif" font-size="14.00">*</text>
<polygon fill="white" stroke="none" points="38,-61 38,-86 63,-86 63,-61 38,-61"/>
<polygon fill="none" stroke="black" points="38,-61 38,-86 63,-86 63,-61 38,-61"/>
<text text-anchor="start" x="48.25" y="-68.08" font-family="Times New Roman,serif" font-size="14.00">&#45;</text>
<polygon fill="black" stroke="none" points="65,-61 65,-86 90,-86 90,-61 65,-61"/>
<polygon fill="none" stroke="black" points="65,-61 65,-86 90,-86 90,-61 65,-61"/>
<text text-anchor="start" x="74.12" y="-68.08" font-family="Times New Roman,serif" font-size="14.00">*</text>
<polygon fill="black" stroke="none" points="92,-61 92,-86 117,-86 117,-61 92,-61"/>
<polygon fill="none" stroke="black" points="92,-61 92,-86 117,-86 117,-61 92,-61"/>
<text text-anchor="start" x="101.12" y="-68.08" font-family="Times New Roman,serif" font-size="14.00">*</text>
<polygon fill="black" stroke="none" points="119,-61 119,-86 144,-86 144,-61 119,-61"/>
<polygon fill="none" stroke="black" points="119,-61 119,-86 144,-86 144,-61 119,-61"/>
<text text-anchor="start" x="128.12" y="-68.08" font-family="Times New Roman,serif" font-size="14.00">*</text>
<polygon fill="black" stroke="none" points="146,-61 146,-86 171,-86 171,-61 146,-61"/>
<polygon fill="none" stroke="black" points="146,-61 146,-86 171,-86 171,-61 146,-61"/>
<text text-anchor="start" x="155.12" y="-68.08" font-family="Times New Roman,serif" font-size="14.00">*</text>
<polygon fill="black" stroke="none" points="173,-61 173,-86 198,-86 198,-61 173,-61"/>
<polygon fill="none" stroke="black" points="173,-61 173,-86 198,-86 198,-61 173,-61"/>
<text text-anchor="start" x="182.12" y="-68.08" font-family="Times New Roman,serif" font-size="14.00">*</text>
<polygon fill="white" stroke="none" points="200,-61 200,-86 225,-86 225,-61 200,-61"/>
<polygon fill="none" stroke="black" points="200,-61 200,-86 225,-86 225,-61 200,-61"/>
<text text-anchor="start" x="210.25" y="-68.08" font-family="Times New Roman,serif" font-size="14.00">&#45;</text>
<polygon fill="black" stroke="none" points="227,-61 227,-86 252,-86 252,-61 227,-61"/>
<polygon fill="none" stroke="black" points="227,-61 227,-86 252,-86 252,-61 227,-61"/>
<text text-anchor="start" x="236.12" y="-68.08" font-family="Times New Roman,serif" font-size="14.00">*</text>
<polygon fill="white" stroke="none" points="254,-61 254,-86 279,-86 279,-61 254,-61"/>
<polygon fill="none" stroke="black" points="254,-61 254,-86 279,-86 279,-61 254,-61"/>
<text text-anchor="start" x="264.25" y="-68.08" font-family="Times New Roman,serif" font-size="14.00">&#45;</text>
<polygon fill="white" stroke="none" points="281,-61 281,-86 306,-86 306,-61 281,-61"/>
<polygon fill="none" stroke="black" points="281,-61 281,-86 306,-86 306,-61 281,-61"/>
<text text-anchor="start" x="291.25" y="-68.08" font-family="Times New Roman,serif" font-size="14.00">&#45;</text>
<polygon fill="black" stroke="none" points="308,-61 308,-86 333,-86 333,-61 308,-61"/>
<polygon fill="none" stroke="black" points="308,-61 308,-86 333,-86 333,-61 308,-61"/>
<text text-anchor="start" x="317.12" y="-68.08" font-family="Times New Roman,serif" font-size="14.00">*</text>
<polygon fill="black" stroke="none" points="335,-61 335,-86 360,-86 360,-61 335,-61"/>
<polygon fill="none" stroke="black" points="335,-61 335,-86 360,-86 360,-61 335,-61"/>
<text text-anchor="start" x="344.12" y="-68.08" font-family="Times New Roman,serif" font-size="14.00">*</text>
<polygon fill="white" stroke="none" points="362,-61 362,-86 387,-86 387,-61 362,-61"/>
<polygon fill="none" stroke="black" points="362,-61 362,-86 387,-86 387,-61 362,-61"/>
<text text-anchor="start" x="372.25" y="-68.08" font-family="Times New Roman,serif" font-size="14.00">&#45;</text>
<polygon fill="black" stroke="none" points="389,-61 389,-86 414,-86 414,-61 389,-61"/>
<polygon fill="none" stroke="black" points="389,-61 389,-86 414,-86 414,-61 389,-61"/>
<text text-anchor="start" x="398.12" y="-68.08" font-family="Times New Roman,serif" font-size="14.00">*</text>
<polygon fill="black" stroke="none" points="11,-34 11,-59 36,-59 36,-34 11,-34"/>
<polygon fill="none" stroke="black" points="11,-34 11,-59 36,-59 36,-34 11,-34"/>
<text text-anchor="start" x="20.12" y="-41.08" font-family="Times New Roman,serif" font-size="14.00">*</text>
<polygon fill="tomato" stroke="none" points="38,-34 38,-59 63,-59 63,-34 38,-34"/>
<polygon fill="none" stroke="black" points="38,-34 38,-59 63,-59 63,-34 38,-34"/>
<text text-anchor="start" x="44.5" y="-41.08" font-family="Times New Roman,serif" font-size="14.00">M</text>
<polygon fill="white" stroke="none" points="65,-34 65,-59 90,-59 90,-34 65,-34"/>
<polygon fill="none" stroke="black" points="65,-34 65,-59 90,-59 90,-34 65,-34"/>
<text text-anchor="start" x="75.25" y="-41.08" font-family="Times New Roman,serif" font-size="14.00">&#45;</text>
<polygon fill="white" stroke="none" points="92,-34 92,-59 117,-59 117,-34 92,-34"/>
<polygon fill="none" stroke="black" points="92,-34 92,-59 117,-59 117,-34 92,-34"/>
<text text-anchor="start" x="102.25" y="-41.08" font-family="Times New Roman,serif" font-size="14.00">&#45;</text>
<polygon fill="white" stroke="none" points="119,-34 119,-59 144,-59 144,-34 119,-34"/>
<polygon fill="none" stroke="black" points="119,-34 119,-59 144,-59 144,-34 119,-34"/>
<text text-anchor="start" x="129.25" y="-41.08" font-family="Times New Roman,serif" font-size="14.00">&#45;</text>
<polygon fill="white" stroke="none" points="146,-34 146,-59 171,-59 171,-34 146,-34"/>
<polygon fill="none" stroke="black" points="146,-34 146,-59 171,-59 171,-34 146,-34"/>
<text text-anchor="start" x="156.25" y="-41.08" font-family="Times New Roman,serif" font-size="14.00">&#45;</text>
<polygon fill="white" stroke="none" points="173,-34 173,-59 198,-59 198,-34 173,-34"/>
<polygon fill="none" stroke="black" points="173,-34 173,-59 198,-59 198,-34 173,-34"/>
<text text-anchor="start" x="183.25" y="-41.08" font-family="Times New Roman,serif" font-size="14.00">&#45;</text>
<polygon fill="white" stroke="none" points="200,-34 200,-59 225,-59 225,-34 200,-34"/>
<polygon fill="none" stroke="black" points="200,-34 200,-59 225,-59 225,-34 200,-34"/>
<text text-anchor="start" x="210.25" y="-41.08" font-family="Times New Roman,serif" font-size="14.00">&#45;</text>
<polygon fill="white" stroke="none" points="227,-34 227,-59 252,-59 252,-34 227,-34"/>
<polygon fill="none" stroke="black" points="227,-34 227,-59 252,-59 252,-34 227,-34"/>
<text text-anchor="start" x="237.25" y="-41.08" font-family="Times New Roman,serif" font-size="14.00">&#45;</text>
<polygon fill="black" stroke="none" points="254,-34 254,-59 279,-59 279,-34 254,-34"/>
<polygon fill="none" stroke="black" points="254,-34 254,-59 279,-59 279,-34 254,-34"/>
<text text-anchor="start" x="263.12" y="-41.08" font-family="Times New Roman,serif" font-size="14.00">*</text>
<polygon fill="white" stroke="none" points="281,-34 281,-59 306,-59 306,-34 281,-34"/>
<polygon fill="none" stroke="black" points="281,-34 281,-59 306,-59 306,-34 281,-34"/>
<text text-anchor="start" x="291.25" y="-41.08" font-family="Times New Roman,serif" font-size="14.00">&#45;</text>
<polygon fill="white" stroke="none" points="308,-34 308,-59 333,-59 333,-34 308,-34"/>
<polygon fill="none" stroke="black" points="308,-34 308,-59 333,-59 333,-34 308,-34"/>
<text text-anchor="start" x="318.25" y="-41.08" font-family="Times New Roman,serif" font-size="14.00">&#45;</text>
<polygon fill="white" stroke="none" points="335,-34 335,-59 360,-59 360,-34 335,-34"/>
<polygon fill="none" stroke="black" points="335,-34 335,-59 360,-59 360,-34 335,-34"/>
<text text-anchor="start" x="345.25" y="-41.08" font-family="Times New Roman,serif" font-size="14.00">&#45;</text>
<polygon fill="white" stroke="none" points="362,-34 362,-59 387,-59 387,-34 362,-34"/>
<polygon fill="none" stroke="black" points="362,-34 362,-59 387,-59 387,-34 362,-34"/>
<text text-anchor="start" x="372.25" y="-41.08" font-family="Times New Roman,serif" font-size="14.00">&#45;</text>
<polygon fill="black" stroke="none" points="389,-34 389,-59 414,-59 414,-34 389,-34"/>
<polygon fill="none" stroke="black" points="389,-34 389,-59 414,-59 414,-34 389,-34"/>
<text text-anchor="start" x="398.12" y="-41.08" font-family="Times New Roman,serif" font-size="14.00">*</text>
<polygon fill="black" stroke="none" points="11,-7 11,-32 36,-32 36,-7 11,-7"/>
<polygon fill="none" stroke="black" points="11,-7 11,-32 36,-32 36,-7 11,-7"/>
<text text-anchor="start" x="20.12" y="-14.07" font-family="Times New Roman,serif" font-size="14.00">*</text>
<polygon fill="black" stroke="none" points="38,-7 38,-32 63,-32 63,-7 38,-7"/>
<polygon fill="none" stroke="black" points="38,-7 38,-32 63,-32 63,-7 38,-7"/>
<text text-anchor="start" x="47.12" y="-14.07" font-family="Times New Roman,serif" font-size="14.00">*</text>
<polygon fill="black" stroke="none" points="65,-7 65,-32 90,-32 90,-7 65,-7"/>
<polygon fill="none" stroke="black" points="65,-7 65,-32 90,-32 90,-7 65,-7"/>
<text text-anchor="start" x="74.12" y="-14.07" font-family="Times New Roman,serif" font-size="14.00">*</text>
<polygon fill="black" stroke="none" points="92,-7 92,-32 117,-32 117,-7 92,-7"/>
<polygon fill="none" stroke="black" points="92,-7 92,-32 117,-32 117,-7 92,-7"/>
<text text-anchor="start" x="101.12" y="-14.07" font-family="Times New Roman,serif" font-size="14.00">*</text>
<polygon fill="black" stroke="none" points="119,-7 119,-32 144,-32 144,-7 119,-7"/>
<polygon fill="none" stroke="black" points="119,-7 119,-32 144,-32 144,-7 119,-7"/>
<text text-anchor="start" x="128.12" y="-14.07" font-family="Times New Roman,serif" font-size="14.00">*</text>
<polygon fill="black" stroke="none" points="146,-7 146,-32 171,-32 171,-7 146,-7"/>
<polygon fill="none" stroke="black" points="146,-7 146,-32 171,-32 171,-7 146,-7"/>
<text text-anchor="start" x="155.12" y="-14.07" font-family="Times New Roman,serif" font-size="14.00">*</text>
<polygon fill="white" stroke="none" points="173,-7 173,-32 198,-32 198,-7 173,-7"/>
<polygon fill="none" stroke="black" points="173,-7 173,-32 198,-32 198,-7 173,-7"/>
<text text-anchor="start" x="183.25" y="-14.07" font-family="Times New Roman,serif" font-size="14.00">&#45;</text>
<polygon fill="black" stroke="none" points="200,-7 200,-32 225,-32 225,-7 200,-7"/>
<polygon fill="none" stroke="black" points="200,-7 200,-32 225,-32 225,-7 200,-7"/>
<text text-anchor="start" x="209.12" y="-14.07" font-family="Times New Roman,serif" font-size="14.00">*</text>
<polygon fill="black" stroke="none" points="227,-7 227,-32 252,-32 252,-7 227,-7"/>
<polygon fill="none" stroke="black" points="227,-7 227,-32 252,-32 252,-7 227,-7"/>
<text text-anchor="start" x="236.12" y="-14.07" font-family="Times New Roman,serif" font-size="14.00">*</text>
<polygon fill="black" stroke="none" points="254,-7 254,-32 279,-32 279,-7 254,-7"/>
<polygon fill="none" stroke="black" points="254,-7 254,-32 279,-32 279,-7 254,-7"/>
<text text-anchor="start" x="263.12" y="-14.07" font-family="Times New Roman,serif" font-size="14.00">*</text>
<polygon fill="black" stroke="none" points="281,-7 281,-32 306,-32 306,-7 281,-7"/>
<polygon fill="none" stroke="black" points="281,-7 281,-32 306,-32 306,-7 281,-7"/>
<text text-anchor="start" x="290.12" y="-14.07" font-family="Times New Roman,serif" font-size="14.00">*</text>
<polygon fill="black" stroke="none" points="308,-7 308,-32 333,-32 333,-7 308,-7"/>
<polygon fill="none" stroke="black" points="308,-7 308,-32 333,-32 333,-7 308,-7"/>
<text text-anchor="start" x="317.12" y="-14.07" font-family="Times New Roman,serif" font-size="14.00">*</text>
<polygon fill="black" stroke="none" points="335,-7 335,-32 360,-32 360,-7 335,-7"/>
<polygon fill="none" stroke="black" points="335,-7 335,-32 360,-32 360,-7 335,-7"/>
<text text-anchor="start" x="344.12" y="-14.07" font-family="Times New Roman,serif" font-size="14.00">*</text>
<polygon fill="black" stroke="none" points="362,-7 362,-32 387,-32 387,-7 362,-7"/>
<polygon fill="none" stroke="black" points="362,-7 362,-32 387,-32 387,-7 362,-7"/>
<text text-anchor="start" x="371.12" y="-14.07" font-family="Times New Roman,serif" font-size="14.00">*</text>
<polygon fill="black" stroke="none" points="389,-7 389,-32 414,-32 414,-7 389,-7"/>
<polygon fill="none" stroke="black" points="389,-7 389,-32 414,-32 414,-7 389,-7"/>
<text text-anchor="start" x="398.12" y="-14.07" font-family="Times New Roman,serif" font-size="14.00">*</text>
<polygon fill="none" stroke="black" points="8,-4 8,-278 417,-278 417,-4 8,-4"/>
</g>
</g>
</svg>
